<svg width="150" height="23" viewBox="0 0 150 23" fill="none" xmlns="http://www.w3.org/2000/svg">
<path d="M11.2 11.5V22.7H22.4C22.4 16.5151 17.3848 11.5 11.2 11.5Z" fill="#F4AB5C"/>
<path d="M22.4 0.3H11.2V11.5C17.3848 11.5 22.4 6.47244 22.4 0.3Z" fill="#F4AB5C"/>
<path d="M0 0.3H11.2V11.5C5.01511 11.5 0 6.47244 0 0.3Z" fill="#F4AB5C"/>
<path d="M0 22.7H11.2V11.5C5.01511 11.5 0 16.5151 0 22.7Z" fill="#F4AB5C"/>
<path d="M43.146 4.08422C45.5038 4.08422 47.314 4.50255 48.5766 5.3392C49.8392 6.16064 50.4705 7.51449 50.4705 9.40075C50.4705 11.3022 49.8316 12.6789 48.5538 13.5308C47.276 14.3674 45.4506 14.7857 43.0775 14.7857H41.9595V20.0794H38.3999V4.49494C39.1757 4.34283 39.9971 4.23634 40.8642 4.1755C41.7313 4.11465 42.4919 4.08422 43.146 4.08422ZM43.3742 7.11898C43.1156 7.11898 42.857 7.12658 42.5984 7.1418C42.355 7.15701 42.142 7.17222 41.9595 7.18743V11.751H43.0775C44.3097 11.751 45.2376 11.5836 45.8613 11.249C46.485 10.9143 46.7968 10.2906 46.7968 9.37793C46.7968 8.93679 46.7131 8.57171 46.5458 8.28268C46.3937 7.99366 46.1655 7.76548 45.8613 7.59815C45.5723 7.41561 45.2148 7.29391 44.7889 7.23307C44.3629 7.15701 43.8914 7.11898 43.3742 7.11898Z" fill="white"/>
<path d="M60.0894 11.0893C59.7851 11.0132 59.4277 10.9371 59.0169 10.8611C58.6062 10.7698 58.1651 10.7242 57.6935 10.7242C57.4805 10.7242 57.2219 10.747 56.9177 10.7926C56.6287 10.8231 56.4081 10.8611 56.256 10.9067V20.0794H52.8562V8.71622C53.4646 8.50325 54.1796 8.3055 55.001 8.12296C55.8377 7.9252 56.7656 7.82633 57.7848 7.82633C57.9673 7.82633 58.1879 7.84154 58.4465 7.87196C58.7051 7.88717 58.9637 7.9176 59.2223 7.96323C59.4809 7.99366 59.7395 8.03929 59.9981 8.10014C60.2567 8.14577 60.4773 8.20662 60.6598 8.28268L60.0894 11.0893Z" fill="white"/>
<path d="M65.8822 20.0794H62.4824V8.07732H65.8822V20.0794ZM66.2017 4.60903C66.2017 5.23272 65.9963 5.7271 65.5856 6.09218C65.1901 6.44205 64.7185 6.61699 64.1709 6.61699C63.6233 6.61699 63.1441 6.44205 62.7334 6.09218C62.3379 5.7271 62.1401 5.23272 62.1401 4.60903C62.1401 3.98535 62.3379 3.49857 62.7334 3.1487C63.1441 2.78362 63.6233 2.60107 64.1709 2.60107C64.7185 2.60107 65.1901 2.78362 65.5856 3.1487C65.9963 3.49857 66.2017 3.98535 66.2017 4.60903Z" fill="white"/>
<path d="M72.5236 17.6379C73.1473 17.6379 73.5884 17.5771 73.847 17.4554C74.1056 17.3337 74.2349 17.0979 74.2349 16.748C74.2349 16.4742 74.0676 16.2385 73.7329 16.0407C73.3983 15.8277 72.8887 15.5919 72.2041 15.3333C71.6717 15.1356 71.1849 14.9302 70.7438 14.7173C70.3179 14.5043 69.9528 14.2533 69.6486 13.9643C69.3443 13.6601 69.1085 13.3026 68.9412 12.8919C68.7739 12.4811 68.6902 11.9868 68.6902 11.4087C68.6902 10.283 69.1085 9.39314 69.9452 8.73904C70.7818 8.08493 71.9303 7.75787 73.3907 7.75787C74.1208 7.75787 74.8206 7.82633 75.4899 7.96323C76.1592 8.08493 76.6916 8.22183 77.0871 8.37395L76.4939 11.0208C76.0984 10.8839 75.6648 10.7622 75.1933 10.6557C74.7369 10.5492 74.2197 10.496 73.6417 10.496C72.5768 10.496 72.0444 10.7926 72.0444 11.3859C72.0444 11.5228 72.0672 11.6445 72.1129 11.751C72.1585 11.8575 72.2498 11.9639 72.3867 12.0704C72.5236 12.1617 72.7061 12.2682 72.9343 12.3899C73.1777 12.4963 73.4819 12.618 73.847 12.7549C74.5924 13.0288 75.2085 13.3026 75.6952 13.5764C76.182 13.835 76.5623 14.124 76.8361 14.4435C77.1252 14.7477 77.3229 15.09 77.4294 15.4703C77.5511 15.8506 77.6119 16.2917 77.6119 16.7937C77.6119 17.9802 77.1632 18.8777 76.2657 19.4862C75.3834 20.0946 74.1284 20.3989 72.5008 20.3989C71.4359 20.3989 70.5461 20.3076 69.8311 20.1251C69.1314 19.9425 68.6446 19.7904 68.3708 19.6687L68.9412 16.9078C69.5193 17.1359 70.1125 17.3185 70.721 17.4554C71.3295 17.5771 71.9303 17.6379 72.5236 17.6379Z" fill="white"/>
<path d="M86.747 13.7133C86.747 12.618 86.6025 11.8422 86.3135 11.3859C86.0397 10.9295 85.5605 10.7014 84.876 10.7014C84.663 10.7014 84.4424 10.7166 84.2143 10.747C83.9861 10.7622 83.7655 10.785 83.5526 10.8154V20.0794H80.1527V8.48804C80.4417 8.41198 80.7764 8.33592 81.1567 8.25986C81.5522 8.16859 81.9629 8.09253 82.3889 8.03169C82.83 7.95563 83.2787 7.90239 83.7351 7.87196C84.1914 7.82633 84.6402 7.80351 85.0813 7.80351C85.9484 7.80351 86.6482 7.9176 87.1806 8.14578C87.7282 8.35874 88.1769 8.61734 88.5268 8.92158C89.0136 8.57171 89.5688 8.29789 90.1925 8.10014C90.8314 7.90239 91.4171 7.80351 91.9495 7.80351C92.9078 7.80351 93.6912 7.94042 94.2997 8.21423C94.9234 8.47283 95.4178 8.84552 95.7828 9.33229C96.1479 9.81907 96.3989 10.3971 96.5358 11.0664C96.6727 11.7358 96.7412 12.4811 96.7412 13.3026V20.0794H93.3413V13.7133C93.3413 12.618 93.1968 11.8422 92.9078 11.3859C92.634 10.9295 92.1548 10.7014 91.4703 10.7014C91.2878 10.7014 91.0291 10.747 90.6945 10.8383C90.375 10.9295 90.1088 11.0436 89.8959 11.1805C90.0024 11.5304 90.0708 11.9031 90.1012 12.2986C90.1317 12.6789 90.1469 13.0896 90.1469 13.5308V20.0794H86.747V13.7133Z" fill="white"/>
<path d="M104.757 20.0794C104.133 18.756 103.517 17.3793 102.909 15.9494C102.3 14.5195 101.722 13.1048 101.175 11.7053C100.627 10.3059 100.118 8.96721 99.646 7.68942C99.1896 6.41163 98.7941 5.27075 98.4595 4.26677H102.384C102.688 5.17947 103.015 6.16824 103.365 7.23307C103.73 8.28268 104.095 9.33229 104.461 10.3819C104.841 11.4315 105.206 12.4355 105.556 13.3938C105.906 14.3522 106.233 15.1812 106.537 15.881C106.826 15.1812 107.145 14.3522 107.495 13.3938C107.86 12.4355 108.225 11.4315 108.591 10.3819C108.971 9.33229 109.336 8.28268 109.686 7.23307C110.051 6.16824 110.386 5.17947 110.69 4.26677H114.477C114.128 5.27075 113.725 6.41163 113.268 7.68942C112.812 8.96721 112.31 10.3059 111.762 11.7053C111.215 13.1048 110.636 14.5195 110.028 15.9494C109.42 17.3793 108.803 18.756 108.18 20.0794H104.757Z" fill="white"/>
<path d="M135.958 13.914C135.958 14.8572 135.821 15.7242 135.547 16.5152C135.274 17.291 134.878 17.9604 134.361 18.5232C133.844 19.0708 133.22 19.4967 132.49 19.801C131.775 20.1052 130.969 20.2573 130.071 20.2573C129.189 20.2573 118.699 19.9591 117.968 19.6548C117.253 19.3506 116.637 18.9246 116.12 18.377C115.603 17.8142 115.2 17.1449 114.911 16.3691C114.622 15.5781 114.477 14.711 114.477 13.7678C114.477 12.8247 114.622 11.9652 114.911 11.1894C115.215 10.4136 115.626 9.75193 116.143 9.20431C116.675 8.65668 117.299 8.23075 118.014 7.92652C118.744 7.62228 129.219 7.61633 130.071 7.61633C130.938 7.61633 131.729 7.76845 132.444 8.07269C133.174 8.37692 133.798 8.80285 134.315 9.35048C134.832 9.8981 135.236 10.5598 135.525 11.3356C135.814 12.1114 135.958 12.9709 135.958 13.914ZM132.49 13.914C132.49 12.8644 132.277 12.043 131.851 11.4497C131.44 10.8412 130.847 10.537 130.071 10.537C129.295 10.537 119.939 10.0582 118.584 10.537C117.946 11.3356 117.721 12.7182 117.721 13.7678C117.721 15.4576 117.536 17.267 118.337 17.267C118.715 17.267 129.295 17.3367 130.071 17.3367C130.847 17.3367 131.44 17.0324 131.851 16.424C132.277 15.8003 132.49 14.9636 132.49 13.914Z" fill="white"/>
<path d="M143.215 11.4952L145.711 7.65533H149.407L145.087 13.7271C146.047 14.9271 146.919 16.095 147.703 17.231C148.487 18.3669 149.111 19.3829 149.575 20.2789H145.735C145.607 20.0389 145.447 19.7429 145.255 19.3909C145.063 19.0229 144.847 18.6469 144.607 18.2629C144.367 17.863 144.111 17.471 143.839 17.087C143.583 16.687 143.327 16.327 143.071 16.007C142.831 16.311 142.583 16.647 142.327 17.015C142.087 17.383 141.855 17.759 141.631 18.143C141.407 18.5109 141.183 18.8789 140.959 19.2469C140.751 19.6149 140.567 19.9589 140.407 20.2789H136.759C136.951 19.8789 137.215 19.4069 137.551 18.8629C137.887 18.3189 138.247 17.759 138.631 17.183C139.031 16.591 139.447 16.007 139.879 15.431C140.311 14.8391 140.735 14.2871 141.151 13.7751C140.431 12.7671 139.711 11.7512 138.991 10.7272C138.271 9.68726 137.559 8.6633 136.855 7.65533H140.719L143.215 11.4952Z" fill="white"/>
</svg>
